<svg xmlns="http://www.w3.org/2000/svg" xmlns:xlink="http://www.w3.org/1999/xlink" contentStyleType="text/css" height="793px" preserveAspectRatio="none" style="width:754px;height:793px;background:#FFFFFF;" version="1.1" viewBox="0 0 754 793" width="754px" zoomAndPan="magnify"><defs/><g><!--class Bakery--><g id="elem_Bakery"><rect codeLine="1" fill="#F1F1F1" height="145.7813" id="Bakery" rx="2.5" ry="2.5" style="stroke:#181818;stroke-width:0.5;" width="294" x="7" y="434.86"/><ellipse cx="126.25" cy="450.86" fill="#ADD1B2" rx="11" ry="11" style="stroke:#181818;stroke-width:1.0;"/><path d="M129.2188,456.5006 Q128.6406,456.7975 128,456.9381 Q127.3594,457.0944 126.6563,457.0944 Q124.1563,457.0944 122.8281,455.4537 Q121.5156,453.7975 121.5156,450.6725 Q121.5156,447.5475 122.8281,445.8912 Q124.1563,444.235 126.6563,444.235 Q127.3594,444.235 128,444.3912 Q128.6563,444.5475 129.2188,444.8444 L129.2188,447.5631 Q128.5938,446.985 128,446.7194 Q127.4063,446.4381 126.7813,446.4381 Q125.4375,446.4381 124.75,447.5162 Q124.0625,448.5787 124.0625,450.6725 Q124.0625,452.7662 124.75,453.8444 Q125.4375,454.9069 126.7813,454.9069 Q127.4063,454.9069 128,454.6412 Q128.5938,454.36 129.2188,453.7819 L129.2188,456.5006 Z " fill="#000000"/><text fill="#000000" font-family="sans-serif" font-size="14" lengthAdjust="spacing" textLength="47" x="146.75" y="455.7067">Bakery</text><line style="stroke:#181818;stroke-width:0.5;" x1="8" x2="300" y1="466.86" y2="466.86"/><rect fill="none" height="6" style="stroke:#C82930;stroke-width:1.0;" width="6" x="15" y="477.5084"/><text fill="#000000" font-family="sans-serif" font-size="14" lengthAdjust="spacing" textLength="88" x="27" y="483.8551">name: String</text><rect fill="none" height="6" style="stroke:#C82930;stroke-width:1.0;" width="6" x="15" y="493.8053"/><text fill="#000000" font-family="sans-serif" font-size="14" lengthAdjust="spacing" textLength="105" x="27" y="500.152">address: String</text><rect fill="none" height="6" style="stroke:#C82930;stroke-width:1.0;" width="6" x="15" y="510.1022"/><text fill="#000000" font-family="sans-serif" font-size="14" lengthAdjust="spacing" textLength="156" x="27" y="516.4489">contactNumber: String</text><line style="stroke:#181818;stroke-width:0.5;" x1="8" x2="300" y1="523.7506" y2="523.7506"/><ellipse cx="18" cy="537.3991" fill="#84BE84" rx="3" ry="3" style="stroke:#038048;stroke-width:1.0;"/><text fill="#000000" font-family="sans-serif" font-size="14" lengthAdjust="spacing" textLength="244" x="27" y="540.7457">addProduct(product: Product): void</text><ellipse cx="18" cy="553.6959" fill="#84BE84" rx="3" ry="3" style="stroke:#038048;stroke-width:1.0;"/><text fill="#000000" font-family="sans-serif" font-size="14" lengthAdjust="spacing" textLength="268" x="27" y="557.0426">removeProduct(productId: String): void</text><ellipse cx="18" cy="569.9928" fill="#84BE84" rx="3" ry="3" style="stroke:#038048;stroke-width:1.0;"/><text fill="#000000" font-family="sans-serif" font-size="14" lengthAdjust="spacing" textLength="267" x="27" y="573.3395">updateProduct(product: Product): void</text></g><!--class Product--><g id="elem_Product"><rect codeLine="10" fill="#F1F1F1" height="145.7813" id="Product" rx="2.5" ry="2.5" style="stroke:#181818;stroke-width:0.5;" width="260" x="162" y="640.64"/><ellipse cx="260.75" cy="656.64" fill="#ADD1B2" rx="11" ry="11" style="stroke:#181818;stroke-width:1.0;"/><path d="M263.7188,662.2806 Q263.1406,662.5775 262.5,662.7181 Q261.8594,662.8744 261.1563,662.8744 Q258.6563,662.8744 257.3281,661.2338 Q256.0156,659.5775 256.0156,656.4525 Q256.0156,653.3275 257.3281,651.6713 Q258.6563,650.015 261.1563,650.015 Q261.8594,650.015 262.5,650.1713 Q263.1563,650.3275 263.7188,650.6244 L263.7188,653.3431 Q263.0938,652.765 262.5,652.4994 Q261.9063,652.2181 261.2813,652.2181 Q259.9375,652.2181 259.25,653.2963 Q258.5625,654.3588 258.5625,656.4525 Q258.5625,658.5463 259.25,659.6244 Q259.9375,660.6869 261.2813,660.6869 Q261.9063,660.6869 262.5,660.4213 Q263.0938,660.14 263.7188,659.5619 L263.7188,662.2806 Z " fill="#000000"/><text fill="#000000" font-family="sans-serif" font-size="14" lengthAdjust="spacing" textLength="54" x="281.25" y="661.4867">Product</text><line style="stroke:#181818;stroke-width:0.5;" x1="163" x2="421" y1="672.64" y2="672.64"/><rect fill="none" height="6" style="stroke:#C82930;stroke-width:1.0;" width="6" x="170" y="683.2884"/><text fill="#000000" font-family="sans-serif" font-size="14" lengthAdjust="spacing" textLength="115" x="182" y="689.6351">productId: String</text><rect fill="none" height="6" style="stroke:#C82930;stroke-width:1.0;" width="6" x="170" y="699.5853"/><text fill="#000000" font-family="sans-serif" font-size="14" lengthAdjust="spacing" textLength="88" x="182" y="705.932">name: String</text><rect fill="none" height="6" style="stroke:#C82930;stroke-width:1.0;" width="6" x="170" y="715.8822"/><text fill="#000000" font-family="sans-serif" font-size="14" lengthAdjust="spacing" textLength="126" x="182" y="722.2289">description: String</text><rect fill="none" height="6" style="stroke:#C82930;stroke-width:1.0;" width="6" x="170" y="732.1791"/><text fill="#000000" font-family="sans-serif" font-size="14" lengthAdjust="spacing" textLength="91" x="182" y="738.5257">price: double</text><rect fill="none" height="6" style="stroke:#C82930;stroke-width:1.0;" width="6" x="170" y="748.4759"/><text fill="#000000" font-family="sans-serif" font-size="14" lengthAdjust="spacing" textLength="81" x="182" y="754.8226">quantity: int</text><line style="stroke:#181818;stroke-width:0.5;" x1="163" x2="421" y1="762.1244" y2="762.1244"/><ellipse cx="173" cy="775.7728" fill="#84BE84" rx="3" ry="3" style="stroke:#038048;stroke-width:1.0;"/><text fill="#000000" font-family="sans-serif" font-size="14" lengthAdjust="spacing" textLength="234" x="182" y="779.1195">updateQuantity(quantity: int): void</text></g><!--class Customer--><g id="elem_Customer"><rect codeLine="19" fill="#F1F1F1" height="129.4844" id="Customer" rx="2.5" ry="2.5" style="stroke:#181818;stroke-width:0.5;" width="234" x="424" y="7"/><ellipse cx="502.75" cy="23" fill="#ADD1B2" rx="11" ry="11" style="stroke:#181818;stroke-width:1.0;"/><path d="M505.7188,28.6406 Q505.1406,28.9375 504.5,29.0781 Q503.8594,29.2344 503.1563,29.2344 Q500.6563,29.2344 499.3281,27.5938 Q498.0156,25.9375 498.0156,22.8125 Q498.0156,19.6875 499.3281,18.0313 Q500.6563,16.375 503.1563,16.375 Q503.8594,16.375 504.5,16.5313 Q505.1563,16.6875 505.7188,16.9844 L505.7188,19.7031 Q505.0938,19.125 504.5,18.8594 Q503.9063,18.5781 503.2813,18.5781 Q501.9375,18.5781 501.25,19.6563 Q500.5625,20.7188 500.5625,22.8125 Q500.5625,24.9063 501.25,25.9844 Q501.9375,27.0469 503.2813,27.0469 Q503.9063,27.0469 504.5,26.7813 Q505.0938,26.5 505.7188,25.9219 L505.7188,28.6406 Z " fill="#000000"/><text fill="#000000" font-family="sans-serif" font-size="14" lengthAdjust="spacing" textLength="68" x="523.25" y="27.8467">Customer</text><line style="stroke:#181818;stroke-width:0.5;" x1="425" x2="657" y1="39" y2="39"/><rect fill="none" height="6" style="stroke:#C82930;stroke-width:1.0;" width="6" x="432" y="49.6484"/><text fill="#000000" font-family="sans-serif" font-size="14" lengthAdjust="spacing" textLength="127" x="444" y="55.9951">customerId: String</text><rect fill="none" height="6" style="stroke:#C82930;stroke-width:1.0;" width="6" x="432" y="65.9453"/><text fill="#000000" font-family="sans-serif" font-size="14" lengthAdjust="spacing" textLength="88" x="444" y="72.292">name: String</text><rect fill="none" height="6" style="stroke:#C82930;stroke-width:1.0;" width="6" x="432" y="82.2422"/><text fill="#000000" font-family="sans-serif" font-size="14" lengthAdjust="spacing" textLength="85" x="444" y="88.5889">email: String</text><rect fill="none" height="6" style="stroke:#C82930;stroke-width:1.0;" width="6" x="432" y="98.5391"/><text fill="#000000" font-family="sans-serif" font-size="14" lengthAdjust="spacing" textLength="105" x="444" y="104.8857">address: String</text><line style="stroke:#181818;stroke-width:0.5;" x1="425" x2="657" y1="112.1875" y2="112.1875"/><ellipse cx="435" cy="125.8359" fill="#84BE84" rx="3" ry="3" style="stroke:#038048;stroke-width:1.0;"/><text fill="#000000" font-family="sans-serif" font-size="14" lengthAdjust="spacing" textLength="208" x="444" y="129.1826">placeOrder(order: Order): void</text></g><!--class Order--><g id="elem_Order"><rect codeLine="27" fill="#F1F1F1" height="178.375" id="Order" rx="2.5" ry="2.5" style="stroke:#181818;stroke-width:0.5;" width="258" x="412" y="196.48"/><ellipse cx="517.25" cy="212.48" fill="#ADD1B2" rx="11" ry="11" style="stroke:#181818;stroke-width:1.0;"/><path d="M520.2188,218.1206 Q519.6406,218.4175 519,218.5581 Q518.3594,218.7144 517.6563,218.7144 Q515.1563,218.7144 513.8281,217.0737 Q512.5156,215.4175 512.5156,212.2925 Q512.5156,209.1675 513.8281,207.5112 Q515.1563,205.855 517.6563,205.855 Q518.3594,205.855 519,206.0112 Q519.6563,206.1675 520.2188,206.4644 L520.2188,209.1831 Q519.5938,208.605 519,208.3394 Q518.4063,208.0581 517.7813,208.0581 Q516.4375,208.0581 515.75,209.1362 Q515.0625,210.1987 515.0625,212.2925 Q515.0625,214.3862 515.75,215.4644 Q516.4375,216.5269 517.7813,216.5269 Q518.4063,216.5269 519,216.2612 Q519.5938,215.98 520.2188,215.4019 L520.2188,218.1206 Z " fill="#000000"/><text fill="#000000" font-family="sans-serif" font-size="14" lengthAdjust="spacing" textLength="39" x="537.75" y="217.3267">Order</text><line style="stroke:#181818;stroke-width:0.5;" x1="413" x2="669" y1="228.48" y2="228.48"/><rect fill="none" height="6" style="stroke:#C82930;stroke-width:1.0;" width="6" x="420" y="239.1284"/><text fill="#000000" font-family="sans-serif" font-size="14" lengthAdjust="spacing" textLength="98" x="432" y="245.4751">orderId: String</text><rect fill="none" height="6" style="stroke:#C82930;stroke-width:1.0;" width="6" x="420" y="255.4253"/><text fill="#000000" font-family="sans-serif" font-size="14" lengthAdjust="spacing" textLength="112" x="432" y="261.772">orderDate: Date</text><rect fill="none" height="6" style="stroke:#C82930;stroke-width:1.0;" width="6" x="420" y="271.7222"/><text fill="#000000" font-family="sans-serif" font-size="14" lengthAdjust="spacing" textLength="92" x="432" y="278.0689">status: String</text><rect fill="none" height="6" style="stroke:#C82930;stroke-width:1.0;" width="6" x="420" y="288.0191"/><text fill="#000000" font-family="sans-serif" font-size="14" lengthAdjust="spacing" textLength="141" x="432" y="294.3657">totalAmount: double</text><rect fill="none" height="6" style="stroke:#C82930;stroke-width:1.0;" width="6" x="420" y="304.3159"/><text fill="#000000" font-family="sans-serif" font-size="14" lengthAdjust="spacing" textLength="143" x="432" y="310.6626">customer: Customer</text><rect fill="none" height="6" style="stroke:#C82930;stroke-width:1.0;" width="6" x="420" y="320.6128"/><text fill="#000000" font-family="sans-serif" font-size="14" lengthAdjust="spacing" textLength="200" x="432" y="326.9595">orderItems: List&lt;OrderItem&gt;</text><line style="stroke:#181818;stroke-width:0.5;" x1="413" x2="669" y1="334.2612" y2="334.2612"/><ellipse cx="423" cy="347.9097" fill="#84BE84" rx="3" ry="3" style="stroke:#038048;stroke-width:1.0;"/><text fill="#000000" font-family="sans-serif" font-size="14" lengthAdjust="spacing" textLength="216" x="432" y="351.2564">calculateTotalAmount(): double</text><ellipse cx="423" cy="364.2066" fill="#84BE84" rx="3" ry="3" style="stroke:#038048;stroke-width:1.0;"/><text fill="#000000" font-family="sans-serif" font-size="14" lengthAdjust="spacing" textLength="232" x="432" y="367.5532">updateStatus(status: String): void</text></g><!--class OrderItem--><g id="elem_OrderItem"><rect codeLine="38" fill="#F1F1F1" height="129.4844" id="OrderItem" rx="2.5" ry="2.5" style="stroke:#181818;stroke-width:0.5;" width="188" x="336" y="443.01"/><ellipse cx="391.25" cy="459.01" fill="#ADD1B2" rx="11" ry="11" style="stroke:#181818;stroke-width:1.0;"/><path d="M394.2188,464.6506 Q393.6406,464.9475 393,465.0881 Q392.3594,465.2444 391.6563,465.2444 Q389.1563,465.2444 387.8281,463.6037 Q386.5156,461.9475 386.5156,458.8225 Q386.5156,455.6975 387.8281,454.0412 Q389.1563,452.385 391.6563,452.385 Q392.3594,452.385 393,452.5412 Q393.6563,452.6975 394.2188,452.9944 L394.2188,455.7131 Q393.5938,455.135 393,454.8694 Q392.4063,454.5881 391.7813,454.5881 Q390.4375,454.5881 389.75,455.6662 Q389.0625,456.7287 389.0625,458.8225 Q389.0625,460.9162 389.75,461.9944 Q390.4375,463.0569 391.7813,463.0569 Q392.4063,463.0569 393,462.7912 Q393.5938,462.51 394.2188,461.9319 L394.2188,464.6506 Z " fill="#000000"/><text fill="#000000" font-family="sans-serif" font-size="14" lengthAdjust="spacing" textLength="69" x="411.75" y="463.8567">OrderItem</text><line style="stroke:#181818;stroke-width:0.5;" x1="337" x2="523" y1="475.01" y2="475.01"/><rect fill="none" height="6" style="stroke:#C82930;stroke-width:1.0;" width="6" x="344" y="485.6584"/><text fill="#000000" font-family="sans-serif" font-size="14" lengthAdjust="spacing" textLength="128" x="356" y="492.0051">orderItemId: String</text><rect fill="none" height="6" style="stroke:#C82930;stroke-width:1.0;" width="6" x="344" y="501.9553"/><text fill="#000000" font-family="sans-serif" font-size="14" lengthAdjust="spacing" textLength="117" x="356" y="508.302">product: Product</text><rect fill="none" height="6" style="stroke:#C82930;stroke-width:1.0;" width="6" x="344" y="518.2522"/><text fill="#000000" font-family="sans-serif" font-size="14" lengthAdjust="spacing" textLength="81" x="356" y="524.5989">quantity: int</text><rect fill="none" height="6" style="stroke:#C82930;stroke-width:1.0;" width="6" x="344" y="534.5491"/><text fill="#000000" font-family="sans-serif" font-size="14" lengthAdjust="spacing" textLength="91" x="356" y="540.8957">price: double</text><line style="stroke:#181818;stroke-width:0.5;" x1="337" x2="523" y1="548.1975" y2="548.1975"/><ellipse cx="347" cy="561.8459" fill="#84BE84" rx="3" ry="3" style="stroke:#038048;stroke-width:1.0;"/><text fill="#000000" font-family="sans-serif" font-size="14" lengthAdjust="spacing" textLength="162" x="356" y="565.1926">calculatePrice(): double</text></g><!--class Payment--><g id="elem_Payment"><rect codeLine="46" fill="#F1F1F1" height="145.7813" id="Payment" rx="2.5" ry="2.5" style="stroke:#181818;stroke-width:0.5;" width="189" x="558.5" y="434.86"/><ellipse cx="618.75" cy="450.86" fill="#ADD1B2" rx="11" ry="11" style="stroke:#181818;stroke-width:1.0;"/><path d="M621.7188,456.5006 Q621.1406,456.7975 620.5,456.9381 Q619.8594,457.0944 619.1563,457.0944 Q616.6563,457.0944 615.3281,455.4537 Q614.0156,453.7975 614.0156,450.6725 Q614.0156,447.5475 615.3281,445.8912 Q616.6563,444.235 619.1563,444.235 Q619.8594,444.235 620.5,444.3912 Q621.1563,444.5475 621.7188,444.8444 L621.7188,447.5631 Q621.0938,446.985 620.5,446.7194 Q619.9063,446.4381 619.2813,446.4381 Q617.9375,446.4381 617.25,447.5162 Q616.5625,448.5787 616.5625,450.6725 Q616.5625,452.7662 617.25,453.8444 Q617.9375,454.9069 619.2813,454.9069 Q619.9063,454.9069 620.5,454.6412 Q621.0938,454.36 621.7188,453.7819 L621.7188,456.5006 Z " fill="#000000"/><text fill="#000000" font-family="sans-serif" font-size="14" lengthAdjust="spacing" textLength="60" x="639.25" y="455.7067">Payment</text><line style="stroke:#181818;stroke-width:0.5;" x1="559.5" x2="746.5" y1="466.86" y2="466.86"/><rect fill="none" height="6" style="stroke:#C82930;stroke-width:1.0;" width="6" x="566.5" y="477.5084"/><text fill="#000000" font-family="sans-serif" font-size="14" lengthAdjust="spacing" textLength="121" x="578.5" y="483.8551">paymentId: String</text><rect fill="none" height="6" style="stroke:#C82930;stroke-width:1.0;" width="6" x="566.5" y="493.8053"/><text fill="#000000" font-family="sans-serif" font-size="14" lengthAdjust="spacing" textLength="135" x="578.5" y="500.152">paymentDate: Date</text><rect fill="none" height="6" style="stroke:#C82930;stroke-width:1.0;" width="6" x="566.5" y="510.1022"/><text fill="#000000" font-family="sans-serif" font-size="14" lengthAdjust="spacing" textLength="110" x="578.5" y="516.4489">amount: double</text><rect fill="none" height="6" style="stroke:#C82930;stroke-width:1.0;" width="6" x="566.5" y="526.3991"/><text fill="#000000" font-family="sans-serif" font-size="14" lengthAdjust="spacing" textLength="162" x="578.5" y="532.7457">paymentMethod: String</text><rect fill="none" height="6" style="stroke:#C82930;stroke-width:1.0;" width="6" x="566.5" y="542.6959"/><text fill="#000000" font-family="sans-serif" font-size="14" lengthAdjust="spacing" textLength="85" x="578.5" y="549.0426">order: Order</text><line style="stroke:#181818;stroke-width:0.5;" x1="559.5" x2="746.5" y1="556.3444" y2="556.3444"/><ellipse cx="569.5" cy="569.9928" fill="#84BE84" rx="3" ry="3" style="stroke:#038048;stroke-width:1.0;"/><text fill="#000000" font-family="sans-serif" font-size="14" lengthAdjust="spacing" textLength="163" x="578.5" y="573.3395">processPayment(): void</text></g><!--link Bakery to Product--><g id="link_Bakery_Product"><path codeLine="55" d="M202.85,580.88 C215.87,600.12 229.95,620.9 242.99,640.15 " fill="none" id="Bakery-Product" style="stroke:#181818;stroke-width:1.0;"/><text fill="#000000" font-family="sans-serif" font-size="13" lengthAdjust="spacing" textLength="8" x="199.1248" y="600.6382">1</text><text fill="#000000" font-family="sans-serif" font-size="13" lengthAdjust="spacing" textLength="7" x="230.9851" y="629.5143">*</text></g><!--link Customer to Order--><g id="link_Customer_Order"><path codeLine="56" d="M541,136.9 C541,155.54 541,176.24 541,196.09 " fill="none" id="Customer-Order" style="stroke:#181818;stroke-width:1.0;"/><text fill="#000000" font-family="sans-serif" font-size="13" lengthAdjust="spacing" textLength="8" x="532.5875" y="156.4666">1</text><text fill="#000000" font-family="sans-serif" font-size="13" lengthAdjust="spacing" textLength="7" x="533.7211" y="185.4263">*</text></g><!--link Order to OrderItem--><g id="link_Order_OrderItem"><path codeLine="57" d="M496.33,375.23 C484.95,397.81 472.93,421.64 462.29,442.72 " fill="none" id="Order-OrderItem" style="stroke:#181818;stroke-width:1.0;"/><text fill="#000000" font-family="sans-serif" font-size="13" lengthAdjust="spacing" textLength="8" x="484.4516" y="395.0369">1</text><text fill="#000000" font-family="sans-serif" font-size="13" lengthAdjust="spacing" textLength="7" x="458.4389" y="431.8609">*</text></g><!--link OrderItem to Product--><g id="link_OrderItem_Product"><path codeLine="58" d="M386.53,572.95 C372.07,594.3 355.87,618.22 341.02,640.14 " fill="none" id="OrderItem-Product" style="stroke:#181818;stroke-width:1.0;"/><text fill="#000000" font-family="sans-serif" font-size="13" lengthAdjust="spacing" textLength="8" x="373.6347" y="592.5207">1</text><text fill="#000000" font-family="sans-serif" font-size="13" lengthAdjust="spacing" textLength="8" x="337.311" y="629.5033">1</text></g><!--link Order to Payment--><g id="link_Order_Payment"><path codeLine="59" d="M586.07,375.23 C596.1,394.94 606.62,415.6 616.26,434.56 " fill="none" id="Order-Payment" style="stroke:#181818;stroke-width:1.0;"/><text fill="#000000" font-family="sans-serif" font-size="13" lengthAdjust="spacing" textLength="8" x="581.3428" y="395.0369">1</text><text fill="#000000" font-family="sans-serif" font-size="13" lengthAdjust="spacing" textLength="8" x="604.2497" y="423.6904">1</text></g><!--SRC=[XLFBReCm4Bpp5HOdqeX3hgYgrCUbKjkaId_0iLUjLMnJUnqfglhl1MF01gHSG9vTPcVM0wkfjUI1VeEvaD-Ca98eAg4YHpH2VNg0Scx0sWHZMY5b-ERa2KnKsNRT1wEvOrWq_RiY0TXKvAm5zsq6f3x3hFEP3rHngsiuHRX6-fTbp9i9U72pO5xtoC4o8neKMYLuOmHhExbsfneyykEeGe6NYWY5aRxtW1T9mqBTexEe9PWWZuNZDNqWgQYltCgMD3Lbi3SSJA6xPqNyOI72eq61RvoDzzXJQweYtTDZ5YcwD0IeaTRtKZk5oOe6KzNeDfg485kM5s7nTZy0TruzepLpTJllO-8jDX7piEgZbrAaYjPDTko9qVOyCpiFrEejBvCGwJrqfKZf54LwaQ36AFQd-VWUdMsRBhSQ6by1l_JATOMxxdDWD6kp4SONqMh2dvxlSbAM9B_9HzTZCADQpzYdPGvtcyoc7G_btSIOVjSLUZt_]--></g></svg>